<svg width="14" height="13" viewBox="0 0 14 13" fill="none" xmlns="http://www.w3.org/2000/svg">
<path d="M12.25 4.9375H8.3125V1C8.3125 0.535156 7.90234 0.125 7.4375 0.125H6.5625C6.07031 0.125 5.6875 0.535156 5.6875 1V4.9375H1.75C1.25781 4.9375 0.875 5.34766 0.875 5.8125V6.6875C0.875 7.17969 1.25781 7.5625 1.75 7.5625H5.6875V11.5C5.6875 11.9922 6.07031 12.375 6.5625 12.375H7.4375C7.90234 12.375 8.3125 11.9922 8.3125 11.5V7.5625H12.25C12.7148 7.5625 13.125 7.17969 13.125 6.6875V5.8125C13.125 5.34766 12.7148 4.9375 12.25 4.9375Z" fill="white"/>
</svg>
