<svg width="36" height="37" viewBox="0 0 36 37" fill="none" xmlns="http://www.w3.org/2000/svg">
<g clip-path="url(#clip0_5_670)">
<path d="M0 18.5C0 8.55888 8.05888 0.5 18 0.5C27.9411 0.5 36 8.55888 36 18.5C36 28.4411 27.9411 36.5 18 36.5C8.05888 36.5 0 28.4411 0 18.5Z" fill="#0F43F9"/>
<g clip-path="url(#clip1_5_670)">
<path d="M11.093 20.722C10.4901 19.7737 9.36615 18.4713 9.36615 17.3445C9.37949 16.9792 9.50288 16.6264 9.72014 16.3324C9.93741 16.0383 10.2384 15.8168 10.5838 15.6968C10.5281 14.7485 10.4901 13.7827 10.4901 12.8256C10.4901 12.2608 10.4901 11.6901 10.5223 11.131C10.5517 10.7755 10.6154 10.4236 10.7125 10.0803C11.1537 8.64329 12.1149 7.42235 13.4082 6.65607C13.8708 6.37333 14.3612 6.13893 14.8717 5.95658C15.8054 5.62 16.3417 4.47732 17.3573 4.45683C19.7311 4.39537 22.6339 6.14974 24.1559 7.7975C25.1259 8.87015 25.6775 10.256 25.7101 11.7018L25.6135 15.8577C25.8381 15.9043 26.0472 16.0068 26.2217 16.1557C26.3961 16.3045 26.5302 16.495 26.6116 16.7094C26.9365 18.0235 25.5754 19.6537 24.9432 20.6985C24.3578 21.6614 22.1275 24.7755 22.1275 24.796C22.1396 24.9743 22.2095 25.1438 22.3266 25.2789C25.7891 30.0378 36 27.0341 36 36.4992H18.1502L0 36.5C0 27.032 10.1798 30.0407 13.6395 25.2818C13.8092 25.033 13.8882 24.8955 13.8853 24.7872C13.8853 24.7257 11.3213 21.0995 11.093 20.7337V20.722Z" fill="white"/>
</g>
</g>
<defs>
<clipPath id="clip0_5_670">
<path d="M0 18.5C0 8.55888 8.05888 0.5 18 0.5C27.9411 0.5 36 8.55888 36 18.5C36 28.4411 27.9411 36.5 18 36.5C8.05888 36.5 0 28.4411 0 18.5Z" fill="white"/>
</clipPath>
<clipPath id="clip1_5_670">
<rect width="36" height="36" fill="white" transform="translate(0 0.5)"/>
</clipPath>
</defs>
</svg>
